#define bfwdstep_width 16
#define bfwdstep_height 16
static char bfwdstep_bits[] = {
   0x00, 0x00, 0x80, 0x33, 0xc0, 0x33, 0xe0, 0x33, 0x70, 0x33, 0x38, 0x33,
   0x1c, 0x33, 0x0e, 0x33, 0x1c, 0x33, 0x38, 0x33, 0x70, 0x33, 0xe0, 0x33,
   0xc0, 0x33, 0x80, 0x33, 0x00, 0x00, 0x00, 0x00};
